<svg width="34" height="34" viewBox="0 0 34 34" fill="none" xmlns="http://www.w3.org/2000/svg">
<path d="M25.4632 19.4624C23.2744 19.4624 21.5 17.688 21.5 15.4991C21.5 13.3103 23.2744 11.5359 25.4632 11.5359C27.652 11.5359 29.4265 13.3103 29.4265 15.4991C29.4265 17.688 27.652 19.4624 25.4632 19.4624Z" stroke="#A8BBD8" stroke-width="2" stroke-linecap="round" stroke-linejoin="round"/>
<path d="M19.7051 25.5783C20.251 25.0013 20.8828 24.5073 21.5808 24.1151C22.7663 23.4492 24.1032 23.0994 25.463 23.0994C26.8227 23.0994 28.1596 23.4492 29.3451 24.1151C29.8578 24.4032 30.3348 24.7461 30.7683 25.1367" stroke="#A8BBD8" stroke-width="2" stroke-linecap="round" stroke-linejoin="round"/>
<path d="M12.6407 18.1904C9.92834 18.1904 7.72949 15.9915 7.72949 13.2792C7.72949 10.5668 9.92834 8.36795 12.6407 8.36795C15.3531 8.36795 17.5519 10.5668 17.5519 13.2792C17.5519 15.9915 15.3531 18.1904 12.6407 18.1904Z" stroke="#A8BBD8" stroke-width="2" stroke-linecap="round" stroke-linejoin="round"/>
<path d="M21.8408 32.2156C21.5959 29.2822 20.8649 27.3534 20.4641 26.6742C19.6109 25.2236 18.4118 24.0246 16.982 23.1927C15.5522 22.3607 13.9398 21.9237 12.2999 21.9237C10.6599 21.9237 9.04755 22.3607 7.61774 23.1927C6.47605 23.857 5.48142 24.7552 4.69252 25.8289L4.19238 26.5775" stroke="#A8BBD8" stroke-width="2" stroke-linecap="round" stroke-linejoin="round"/>
<path d="M17 33C8.16345 33 1 25.8367 1 17C1 8.16345 8.16345 1 17 1C25.8367 1 33 8.16345 33 17C33 25.8367 25.8367 33 17 33Z" stroke="#A8BBD8" stroke-width="2" stroke-linecap="round" stroke-linejoin="round"/>
</svg>
