<svg width="27" height="24" viewBox="0 0 27 24" fill="none" xmlns="http://www.w3.org/2000/svg">
<path d="M22.3571 16.9911V20.75C22.3571 21.2484 22.1614 21.7265 21.8132 22.0789C21.465 22.4313 20.9925 22.6294 20.5 22.6294H2.85714C2.36459 22.6294 1.89223 22.4313 1.54394 22.0789C1.19566 21.7265 1 21.2484 1 20.75V6.65428C1 3.54035 3.49442 1.01599 6.57143 1.01599H18.6429V5.71456" stroke="black" stroke-width="2" stroke-linecap="round" stroke-linejoin="round"/>
<path d="M24.2142 11.3528H17.7142C17.2014 11.3528 16.7856 11.7736 16.7856 12.2925V16.0514C16.7856 16.5703 17.2014 16.9911 17.7142 16.9911H24.2142C24.727 16.9911 25.1428 16.5703 25.1428 16.0514V12.2925C25.1428 11.7736 24.727 11.3528 24.2142 11.3528Z" stroke="black" stroke-width="2" stroke-linecap="round" stroke-linejoin="round"/>
<path d="M22.3572 11.3528V7.59397C22.3572 7.09551 22.1615 6.61747 21.8133 6.265C21.4651 5.91256 20.9926 5.71454 20.5001 5.71454H18.643H6.57153" stroke="black" stroke-width="2" stroke-linecap="round" stroke-linejoin="round"/>
</svg>
