<svg width="17" height="18" viewBox="0 0 17 18" fill="none" xmlns="http://www.w3.org/2000/svg">
<path d="M3.08329 13.5837H1.83329V4.41699H8.33329L7.66663 5.08366C7.49996 5.25033 7.41663 5.41699 7.41663 5.66699C7.41663 6.16699 7.74996 6.50033 8.24996 6.50033C8.49996 6.50033 8.66663 6.41699 8.83329 6.25033L10.9166 4.16699C11.25 3.83366 11.25 3.33366 10.9166 3.00033L8.83329 0.916992C8.49996 0.583659 7.99996 0.583659 7.66663 0.916992C7.33329 1.25033 7.33329 1.75033 7.66663 2.08366L8.33329 2.75033H0.999959C0.499959 2.75033 0.166626 3.08366 0.166626 3.58366V14.417C0.166626 14.917 0.499959 15.2503 0.999959 15.2503H3.08329C3.58329 15.2503 3.91663 14.917 3.91663 14.417C3.91663 13.917 3.58329 13.5837 3.08329 13.5837ZM16 2.75033H13.9166C13.4166 2.75033 13.0833 3.08366 13.0833 3.58366C13.0833 4.08366 13.4166 4.41699 13.9166 4.41699H15.1666V13.5837H8.16663L8.83329 12.917C9.16663 12.5837 9.16663 12.0837 8.83329 11.7503C8.49996 11.417 7.99996 11.417 7.66663 11.7503L5.58329 13.8337C5.24996 14.167 5.24996 14.667 5.58329 15.0003L7.66663 17.0837C7.83329 17.2503 7.99996 17.3337 8.24996 17.3337C8.49996 17.3337 8.66663 17.2503 8.83329 17.0837C9.16663 16.7503 9.16663 16.2503 8.83329 15.917L8.16663 15.2503H16C16.5 15.2503 16.8333 14.917 16.8333 14.417V3.58366C16.8333 3.08366 16.5 2.75033 16 2.75033Z" fill="#1329EE"/>
</svg>
