<svg width="34" height="34" viewBox="0 0 34 34" fill="none" xmlns="http://www.w3.org/2000/svg">
<path d="M23.7093 19.5799C28.8402 19.5799 32.9996 15.4206 32.9996 10.29C32.9996 5.15925 28.8402 1 23.7093 1C18.5784 1 14.4189 5.15925 14.4189 10.29C14.4189 15.4206 18.5784 19.5799 23.7093 19.5799Z" stroke="#A8BBD8" stroke-width="2" stroke-linecap="round" stroke-linejoin="round"/>
<path d="M19.0645 10.2915C19.0645 9.05954 19.5539 7.87807 20.425 7.00697C21.2961 6.13586 22.4776 5.64648 23.7096 5.64648" stroke="#A8BBD8" stroke-width="2" stroke-linecap="round" stroke-linejoin="round"/>
<path d="M21.1295 32.9989C23.695 32.9989 25.7747 30.9193 25.7747 28.354C25.7747 25.7886 23.695 23.709 21.1295 23.709C18.5641 23.709 16.4844 25.7886 16.4844 28.354C16.4844 30.9193 18.5641 32.9989 21.1295 32.9989Z" stroke="#A8BBD8" stroke-width="2" stroke-linecap="round" stroke-linejoin="round"/>
<path d="M18.8066 28.3537C18.8066 27.7378 19.0513 27.147 19.4869 26.7115C19.9225 26.2759 20.5132 26.0312 21.1292 26.0312" stroke="#A8BBD8" stroke-width="2" stroke-linecap="round" stroke-linejoin="round"/>
<path d="M7.19356 25.7753C10.6142 25.7753 13.3871 23.0024 13.3871 19.582C13.3871 16.1615 10.6142 13.3887 7.19356 13.3887C3.77295 13.3887 1 16.1615 1 19.582C1 23.0024 3.77295 25.7753 7.19356 25.7753Z" stroke="#A8BBD8" stroke-width="2" stroke-linecap="round" stroke-linejoin="round"/>
<path d="M4.09668 19.581C4.09668 18.7597 4.42295 17.9721 5.00371 17.3914C5.58447 16.8106 6.37214 16.4844 7.19346 16.4844" stroke="#A8BBD8" stroke-width="2" stroke-linecap="round" stroke-linejoin="round"/>
</svg>
