<svg width="14" height="16" viewBox="0 0 14 16" fill="none" xmlns="http://www.w3.org/2000/svg">
<path d="M2.31836 2.5C2.31836 2.36739 2.37526 2.24021 2.47654 2.14645C2.57783 2.05268 2.7152 2 2.85843 2H3.93857C4.08181 2 4.21918 2.05268 4.32046 2.14645C4.42175 2.24021 4.47865 2.36739 4.47865 2.5V3.5C4.47865 3.63261 4.42175 3.75979 4.32046 3.85355C4.21918 3.94732 4.08181 4 3.93857 4H2.85843C2.7152 4 2.57783 3.94732 2.47654 3.85355C2.37526 3.75979 2.31836 3.63261 2.31836 3.5V2.5ZM5.55879 2.5C5.55879 2.36739 5.61569 2.24021 5.71697 2.14645C5.81826 2.05268 5.95563 2 6.09886 2H7.179C7.32224 2 7.45961 2.05268 7.56089 2.14645C7.66218 2.24021 7.71908 2.36739 7.71908 2.5V3.5C7.71908 3.63261 7.66218 3.75979 7.56089 3.85355C7.45961 3.94732 7.32224 4 7.179 4H6.09886C5.95563 4 5.81826 3.94732 5.71697 3.85355C5.61569 3.75979 5.55879 3.63261 5.55879 3.5V2.5ZM9.33929 2C9.19605 2 9.05869 2.05268 8.9574 2.14645C8.85612 2.24021 8.79922 2.36739 8.79922 2.5V3.5C8.79922 3.63261 8.85612 3.75979 8.9574 3.85355C9.05869 3.94732 9.19605 4 9.33929 4H10.4194C10.5627 4 10.7 3.94732 10.8013 3.85355C10.9026 3.75979 10.9595 3.63261 10.9595 3.5V2.5C10.9595 2.36739 10.9026 2.24021 10.8013 2.14645C10.7 2.05268 10.5627 2 10.4194 2H9.33929ZM2.31836 5.5C2.31836 5.36739 2.37526 5.24021 2.47654 5.14645C2.57783 5.05268 2.7152 5 2.85843 5H3.93857C4.08181 5 4.21918 5.05268 4.32046 5.14645C4.42175 5.24021 4.47865 5.36739 4.47865 5.5V6.5C4.47865 6.63261 4.42175 6.75979 4.32046 6.85355C4.21918 6.94732 4.08181 7 3.93857 7H2.85843C2.7152 7 2.57783 6.94732 2.47654 6.85355C2.37526 6.75979 2.31836 6.63261 2.31836 6.5V5.5ZM6.09886 5C5.95563 5 5.81826 5.05268 5.71697 5.14645C5.61569 5.24021 5.55879 5.36739 5.55879 5.5V6.5C5.55879 6.63261 5.61569 6.75979 5.71697 6.85355C5.81826 6.94732 5.95563 7 6.09886 7H7.179C7.32224 7 7.45961 6.94732 7.56089 6.85355C7.66218 6.75979 7.71908 6.63261 7.71908 6.5V5.5C7.71908 5.36739 7.66218 5.24021 7.56089 5.14645C7.45961 5.05268 7.32224 5 7.179 5H6.09886ZM8.79922 5.5C8.79922 5.36739 8.85612 5.24021 8.9574 5.14645C9.05869 5.05268 9.19605 5 9.33929 5H10.4194C10.5627 5 10.7 5.05268 10.8013 5.14645C10.9026 5.24021 10.9595 5.36739 10.9595 5.5V6.5C10.9595 6.63261 10.9026 6.75979 10.8013 6.85355C10.7 6.94732 10.5627 7 10.4194 7H9.33929C9.19605 7 9.05869 6.94732 8.9574 6.85355C8.85612 6.75979 8.79922 6.63261 8.79922 6.5V5.5ZM2.85843 8C2.7152 8 2.57783 8.05268 2.47654 8.14645C2.37526 8.24021 2.31836 8.36739 2.31836 8.5V9.5C2.31836 9.63261 2.37526 9.75979 2.47654 9.85355C2.57783 9.94732 2.7152 10 2.85843 10H3.93857C4.08181 10 4.21918 9.94732 4.32046 9.85355C4.42175 9.75979 4.47865 9.63261 4.47865 9.5V8.5C4.47865 8.36739 4.42175 8.24021 4.32046 8.14645C4.21918 8.05268 4.08181 8 3.93857 8H2.85843ZM5.55879 8.5C5.55879 8.36739 5.61569 8.24021 5.71697 8.14645C5.81826 8.05268 5.95563 8 6.09886 8H7.179C7.32224 8 7.45961 8.05268 7.56089 8.14645C7.66218 8.24021 7.71908 8.36739 7.71908 8.5V9.5C7.71908 9.63261 7.66218 9.75979 7.56089 9.85355C7.45961 9.94732 7.32224 10 7.179 10H6.09886C5.95563 10 5.81826 9.94732 5.71697 9.85355C5.61569 9.75979 5.55879 9.63261 5.55879 9.5V8.5ZM9.33929 8C9.19605 8 9.05869 8.05268 8.9574 8.14645C8.85612 8.24021 8.79922 8.36739 8.79922 8.5V9.5C8.79922 9.63261 8.85612 9.75979 8.9574 9.85355C9.05869 9.94732 9.19605 10 9.33929 10H10.4194C10.5627 10 10.7 9.94732 10.8013 9.85355C10.9026 9.75979 10.9595 9.63261 10.9595 9.5V8.5C10.9595 8.36739 10.9026 8.24021 10.8013 8.14645C10.7 8.05268 10.5627 8 10.4194 8H9.33929Z" fill="black"/>
<path d="M0.158203 1C0.158203 0.734784 0.272004 0.48043 0.47457 0.292893C0.677136 0.105357 0.951875 0 1.23835 0L12.0398 0C12.3263 0 12.601 0.105357 12.8036 0.292893C13.0061 0.48043 13.1199 0.734784 13.1199 1V15C13.1199 15.2652 13.0061 15.5196 12.8036 15.7071C12.601 15.8946 12.3263 16 12.0398 16H1.23835C0.951875 16 0.677136 15.8946 0.47457 15.7071C0.272004 15.5196 0.158203 15.2652 0.158203 15V1ZM12.0398 1H1.23835V15H4.47878V12.5C4.47878 12.3674 4.53568 12.2402 4.63696 12.1464C4.73824 12.0527 4.87561 12 5.01885 12H8.25928C8.40251 12 8.53988 12.0527 8.64117 12.1464C8.74245 12.2402 8.79935 12.3674 8.79935 12.5V15H12.0398V1Z" fill="black"/>
</svg>
