<svg width="18" height="16" viewBox="0 0 18 16" fill="none" xmlns="http://www.w3.org/2000/svg">
<path d="M3.97191 0C4.11514 0 4.25251 0.0526784 4.3538 0.146447C4.45508 0.240215 4.51198 0.367392 4.51198 0.5V1H13.1531V0.5C13.1531 0.367392 13.21 0.240215 13.3113 0.146447C13.4126 0.0526784 13.55 0 13.6932 0C13.8364 0 13.9738 0.0526784 14.0751 0.146447C14.1764 0.240215 14.2333 0.367392 14.2333 0.5V1H15.3134C15.8864 1 16.4358 1.21071 16.841 1.58579C17.2461 1.96086 17.4737 2.46957 17.4737 3V14C17.4737 14.5304 17.2461 15.0391 16.841 15.4142C16.4358 15.7893 15.8864 16 15.3134 16H2.35169C1.77875 16 1.22927 15.7893 0.82414 15.4142C0.419007 15.0391 0.191406 14.5304 0.191406 14V3C0.191406 2.46957 0.419007 1.96086 0.82414 1.58579C1.22927 1.21071 1.77875 1 2.35169 1H3.43184V0.5C3.43184 0.367392 3.48874 0.240215 3.59002 0.146447C3.6913 0.0526784 3.82867 0 3.97191 0ZM1.27155 4V14C1.27155 14.2652 1.38535 14.5196 1.58792 14.7071C1.79048 14.8946 2.06522 15 2.35169 15H15.3134C15.5999 15 15.8746 14.8946 16.0772 14.7071C16.2798 14.5196 16.3936 14.2652 16.3936 14V4H1.27155Z" fill="black"/>
</svg>
