<svg width="14" height="16" viewBox="0 0 14 16" fill="none" xmlns="http://www.w3.org/2000/svg">
<path fill-rule="evenodd" clip-rule="evenodd" d="M8.42213 1C8.2789 1 8.14153 0.947322 8.04025 0.853553C7.93896 0.759785 7.88206 0.632608 7.88206 0.5C7.88206 0.367392 7.93896 0.240215 8.04025 0.146447C8.14153 0.0526784 8.2789 0 8.42213 0L12.7427 0C12.8859 0 13.0233 0.0526784 13.1246 0.146447C13.2259 0.240215 13.2828 0.367392 13.2828 0.5V4.5C13.2828 4.63261 13.2259 4.75979 13.1246 4.85355C13.0233 4.94732 12.8859 5 12.7427 5C12.5995 5 12.4621 4.94732 12.3608 4.85355C12.2595 4.75979 12.2026 4.63261 12.2026 4.5V1.707L8.47614 5.157C8.79723 5.7291 8.96419 6.36457 8.9628 7.00929C8.96141 7.65401 8.79171 8.28886 8.46815 8.85977C8.1446 9.43067 7.67678 9.92071 7.10455 10.2881C6.53232 10.6556 5.87264 10.8895 5.1817 10.97V13H6.80192C6.94515 13 7.08252 13.0527 7.18381 13.1464C7.28509 13.2402 7.34199 13.3674 7.34199 13.5C7.34199 13.6326 7.28509 13.7598 7.18381 13.8536C7.08252 13.9473 6.94515 14 6.80192 14H5.1817V15.5C5.1817 15.6326 5.1248 15.7598 5.02352 15.8536C4.92224 15.9473 4.78487 16 4.64163 16C4.4984 16 4.36103 15.9473 4.25974 15.8536C4.15846 15.7598 4.10156 15.6326 4.10156 15.5V14H2.48135C2.33811 14 2.20074 13.9473 2.09946 13.8536C1.99817 13.7598 1.94127 13.6326 1.94127 13.5C1.94127 13.3674 1.99817 13.2402 2.09946 13.1464C2.20074 13.0527 2.33811 13 2.48135 13H4.10156V10.97C3.4101 10.8892 2.75002 10.6547 2.17764 10.2865C1.60527 9.91835 1.13759 9.42746 0.814517 8.85573C0.49144 8.28401 0.322553 7.6484 0.322266 7.00316C0.321979 6.35792 0.490301 5.72219 0.81287 5.15021C1.13544 4.57824 1.60268 4.08699 2.17472 3.7184C2.74677 3.34981 3.40664 3.1148 4.09803 3.03344C4.78942 2.95208 5.49182 3.02677 6.14527 3.25115C6.79873 3.47553 7.38386 3.84293 7.85074 4.322L11.439 1H8.42213ZM7.34523 5.346C6.87126 4.68216 6.13187 4.21983 5.2897 4.0607C4.44753 3.90158 3.57157 4.0587 2.85454 4.4975C2.1375 4.9363 1.63811 5.62084 1.46623 6.40052C1.29435 7.1802 1.46407 7.99116 1.93803 8.655C2.41214 9.31884 3.15168 9.78112 3.99395 9.94015C4.83622 10.0992 5.71223 9.94193 6.42927 9.503C7.14631 9.06407 7.64564 8.3794 7.81742 7.59963C7.98919 6.81985 7.81934 6.00884 7.34523 5.345V5.346Z" fill="black"/>
<path fill-rule="evenodd" clip-rule="evenodd" d="M8.42213 1C8.2789 1 8.14153 0.947322 8.04025 0.853553C7.93896 0.759785 7.88206 0.632608 7.88206 0.5C7.88206 0.367392 7.93896 0.240215 8.04025 0.146447C8.14153 0.0526784 8.2789 0 8.42213 0L12.7427 0C12.8859 0 13.0233 0.0526784 13.1246 0.146447C13.2259 0.240215 13.2828 0.367392 13.2828 0.5V4.5C13.2828 4.63261 13.2259 4.75979 13.1246 4.85355C13.0233 4.94732 12.8859 5 12.7427 5C12.5995 5 12.4621 4.94732 12.3608 4.85355C12.2595 4.75979 12.2026 4.63261 12.2026 4.5V1.707L8.47614 5.157C8.79723 5.7291 8.96419 6.36457 8.9628 7.00929C8.96141 7.65401 8.79171 8.28886 8.46815 8.85977C8.1446 9.43067 7.67678 9.92071 7.10455 10.2881C6.53232 10.6556 5.87264 10.8895 5.1817 10.97V13H6.80192C6.94515 13 7.08252 13.0527 7.18381 13.1464C7.28509 13.2402 7.34199 13.3674 7.34199 13.5C7.34199 13.6326 7.28509 13.7598 7.18381 13.8536C7.08252 13.9473 6.94515 14 6.80192 14H5.1817V15.5C5.1817 15.6326 5.1248 15.7598 5.02352 15.8536C4.92224 15.9473 4.78487 16 4.64163 16C4.4984 16 4.36103 15.9473 4.25974 15.8536C4.15846 15.7598 4.10156 15.6326 4.10156 15.5V14H2.48135C2.33811 14 2.20074 13.9473 2.09946 13.8536C1.99817 13.7598 1.94127 13.6326 1.94127 13.5C1.94127 13.3674 1.99817 13.2402 2.09946 13.1464C2.20074 13.0527 2.33811 13 2.48135 13H4.10156V10.97C3.4101 10.8892 2.75002 10.6547 2.17764 10.2865C1.60527 9.91835 1.13759 9.42746 0.814517 8.85573C0.49144 8.28401 0.322553 7.6484 0.322266 7.00316C0.321979 6.35792 0.490301 5.72219 0.81287 5.15021C1.13544 4.57824 1.60268 4.08699 2.17472 3.7184C2.74677 3.34981 3.40664 3.1148 4.09803 3.03344C4.78942 2.95208 5.49182 3.02677 6.14527 3.25115C6.79873 3.47553 7.38386 3.84293 7.85074 4.322L11.439 1H8.42213ZM7.34523 5.346C6.87126 4.68216 6.13187 4.21983 5.2897 4.0607C4.44753 3.90158 3.57157 4.0587 2.85454 4.4975C2.1375 4.9363 1.63811 5.62084 1.46623 6.40052C1.29435 7.1802 1.46407 7.99116 1.93803 8.655C2.41214 9.31884 3.15168 9.78112 3.99395 9.94015C4.83622 10.0992 5.71223 9.94193 6.42927 9.503C7.14631 9.06407 7.64564 8.3794 7.81742 7.59963C7.98919 6.81985 7.81934 6.00884 7.34523 5.345V5.346Z" fill="black"/>
</svg>
