<svg width="12" height="16" viewBox="0 0 12 16" fill="none" xmlns="http://www.w3.org/2000/svg">
<path fill-rule="evenodd" clip-rule="evenodd" d="M5.84798 0.999629C5.42244 0.999629 5.00107 1.07723 4.60792 1.22799C4.21478 1.37875 3.85755 1.59973 3.55665 1.87831C3.25575 2.15688 3.01706 2.4876 2.85422 2.85158C2.69137 3.21556 2.60755 3.60566 2.60755 3.99963C2.60755 4.39359 2.69137 4.7837 2.85422 5.14768C3.01706 5.51166 3.25575 5.84237 3.55665 6.12095C3.85755 6.39953 4.21478 6.6205 4.60792 6.77127C5.00107 6.92203 5.42244 6.99963 5.84798 6.99963C6.7074 6.99963 7.53161 6.68356 8.13931 6.12095C8.74701 5.55834 9.08841 4.79528 9.08841 3.99963C9.08841 3.20398 8.74701 2.44092 8.13931 1.87831C7.53161 1.3157 6.7074 0.999629 5.84798 0.999629ZM1.52741 3.99963C1.52749 3.22986 1.76748 2.47645 2.21859 1.82982C2.66969 1.18319 3.31276 0.670801 4.07061 0.354136C4.82846 0.0374708 5.66892 -0.0700184 6.49112 0.044566C7.31332 0.15915 8.08235 0.490941 8.70592 1.00013C9.3295 1.50931 9.78113 2.17426 10.0066 2.91518C10.2321 3.65611 10.2219 4.44153 9.97721 5.17722C9.7325 5.9129 9.26371 6.56759 8.62707 7.06272C7.99043 7.55786 7.213 7.87241 6.38805 7.96863V13.4996C6.38805 13.6322 6.33115 13.7594 6.22987 13.8532C6.12859 13.947 5.99122 13.9996 5.84798 13.9996C5.70475 13.9996 5.56738 13.947 5.46609 13.8532C5.36481 13.7594 5.30791 13.6322 5.30791 13.4996V7.96963C4.26337 7.84779 3.30283 7.37707 2.6067 6.64586C1.91058 5.91466 1.52678 4.97431 1.52741 3.99963ZM4.22021 12.5736C4.24363 12.7044 4.21003 12.8384 4.12678 12.9462C4.04354 13.054 3.91747 13.1268 3.77627 13.1486C3.00721 13.2666 2.39368 13.4436 1.98863 13.6416C1.83962 13.7075 1.70433 13.7972 1.58898 13.9066C1.56282 13.933 1.54197 13.9635 1.52741 13.9966V13.9996L1.52957 14.0076L1.54685 14.0406C1.5892 14.0987 1.6422 14.1495 1.70347 14.1906C1.8817 14.3206 2.17333 14.4606 2.58163 14.5856C3.39282 14.8356 4.54749 14.9996 5.84798 14.9996C7.14847 14.9996 8.30315 14.8366 9.11434 14.5856C9.52263 14.4596 9.81427 14.3206 9.99249 14.1906C10.0541 14.1496 10.1075 14.0988 10.1502 14.0406L10.1664 14.0076L10.1686 13.9996V13.9956C10.154 13.9625 10.1331 13.932 10.107 13.9056C9.99155 13.7966 9.85626 13.7072 9.70733 13.6416C9.3012 13.4436 8.68876 13.2666 7.9197 13.1486C7.84806 13.1396 7.7791 13.1174 7.7169 13.0833C7.65471 13.0492 7.60055 13.0039 7.55763 12.95C7.51471 12.8961 7.4839 12.8349 7.46704 12.7698C7.45018 12.7047 7.4476 12.6371 7.45946 12.5711C7.47132 12.5051 7.49738 12.442 7.53609 12.3854C7.5748 12.3289 7.62538 12.2801 7.68482 12.2421C7.74426 12.204 7.81135 12.1773 7.88213 12.1637C7.9529 12.15 8.02592 12.1497 8.09684 12.1626C8.92855 12.2896 9.66521 12.4906 10.2107 12.7566C10.7086 12.9996 11.2487 13.3996 11.2487 13.9996C11.2487 14.4256 10.9679 14.7516 10.6611 14.9766C10.3479 15.2046 9.9266 15.3896 9.45566 15.5346C8.5073 15.8276 7.23165 15.9996 5.84798 15.9996C4.46432 15.9996 3.18867 15.8276 2.2403 15.5346C1.76936 15.3896 1.34811 15.2046 1.03486 14.9766C0.728103 14.7516 0.447266 14.4256 0.447266 13.9996C0.447266 13.4006 0.987337 12.9996 1.48528 12.7566C2.03076 12.4906 2.76741 12.2896 3.59912 12.1626C3.74035 12.1409 3.88509 12.1721 4.00155 12.2491C4.11801 12.3262 4.19665 12.4429 4.22021 12.5736Z" fill="black"/>
</svg>
