<svg width="17" height="16" viewBox="0 0 17 16" fill="none" xmlns="http://www.w3.org/2000/svg">
<path d="M15.9462 0.0748824C16.0244 0.119677 16.089 0.182228 16.1338 0.256606C16.1786 0.330983 16.2021 0.414722 16.2022 0.499882V15.4999C16.2022 15.6325 16.1453 15.7597 16.044 15.8534C15.9427 15.9472 15.8053 15.9999 15.6621 15.9999H12.4216C12.2784 15.9999 12.141 15.9472 12.0398 15.8534C11.9385 15.7597 11.8816 15.6325 11.8816 15.4999V13.9999H10.8014V15.4999C10.8014 15.6325 10.7445 15.7597 10.6433 15.8534C10.542 15.9472 10.4046 15.9999 10.2614 15.9999H0.540072C0.396836 15.9999 0.259466 15.9472 0.158183 15.8534C0.0569003 15.7597 0 15.6325 0 15.4999V9.99988C8.60299e-05 9.89499 0.0358047 9.79277 0.1021 9.7077C0.168396 9.62264 0.261911 9.55903 0.369409 9.52588L6.48086 7.63988V4.49988C6.48086 4.4071 6.50875 4.31616 6.5614 4.23721C6.61405 4.15827 6.68938 4.09445 6.77898 4.05288L15.4201 0.0528824C15.5025 0.0146883 15.5942 -0.00334141 15.6862 0.00050948C15.7783 0.00436037 15.8678 0.0299637 15.9462 0.0748824ZM6.48086 8.69388L1.08014 10.3599V14.9999H6.48086V8.69388ZM7.561 14.9999H9.72129V13.4999C9.72129 13.3673 9.77819 13.2401 9.87947 13.1463C9.98076 13.0526 10.1181 12.9999 10.2614 12.9999H12.4216C12.5649 12.9999 12.7023 13.0526 12.8035 13.1463C12.9048 13.2401 12.9617 13.3673 12.9617 13.4999V14.9999H15.122V1.30888L7.561 4.80888V14.9999Z" fill="black"/>
<path d="M2.16083 11H3.24097V12H2.16083V11ZM4.32111 11H5.40126V12H4.32111V11ZM2.16083 13H3.24097V14H2.16083V13ZM4.32111 13H5.40126V14H4.32111V13ZM8.64169 9H9.72183V10H8.64169V9ZM10.802 9H11.8821V10H10.802V9ZM8.64169 11H9.72183V12H8.64169V11ZM10.802 11H11.8821V12H10.802V11ZM12.9623 9H14.0424V10H12.9623V9ZM12.9623 11H14.0424V12H12.9623V11ZM8.64169 7H9.72183V8H8.64169V7ZM10.802 7H11.8821V8H10.802V7ZM12.9623 7H14.0424V8H12.9623V7ZM8.64169 5H9.72183V6H8.64169V5ZM10.802 5H11.8821V6H10.802V5ZM12.9623 5H14.0424V6H12.9623V5ZM12.9623 3H14.0424V4H12.9623V3Z" fill="black"/>
</svg>
