<svg width="18" height="12" viewBox="0 0 18 12" fill="none" xmlns="http://www.w3.org/2000/svg">
<path d="M0.191406 2C0.191406 1.46957 0.419007 0.960859 0.82414 0.585786C1.22927 0.210714 1.77875 0 2.35169 0H15.3134C15.8864 0 16.4358 0.210714 16.841 0.585786C17.2461 0.960859 17.4737 1.46957 17.4737 2V10C17.4737 10.5304 17.2461 11.0391 16.841 11.4142C16.4358 11.7893 15.8864 12 15.3134 12H2.35169C1.77875 12 1.22927 11.7893 0.82414 11.4142C0.419007 11.0391 0.191406 10.5304 0.191406 10V2ZM2.35169 1C2.06522 1 1.79048 1.10536 1.58792 1.29289C1.38535 1.48043 1.27155 1.73478 1.27155 2V2.217L8.83255 6.417L16.3936 2.217V2C16.3936 1.73478 16.2798 1.48043 16.0772 1.29289C15.8746 1.10536 15.5999 1 15.3134 1H2.35169ZM16.3936 3.383L11.3082 6.208L16.3936 9.105V3.383ZM16.3568 10.259L10.2648 6.788L8.83255 7.583L7.40028 6.788L1.30827 10.258C1.36965 10.4708 1.5052 10.6589 1.69387 10.7931C1.88255 10.9272 2.11379 11 2.35169 11H15.3134C15.5512 11 15.7823 10.9274 15.971 10.7934C16.1596 10.6595 16.2952 10.4716 16.3568 10.259ZM1.27155 9.105L6.35686 6.208L1.27155 3.383V9.105Z" fill="black"/>
</svg>
