<svg width="32" height="32" viewBox="0 0 32 32" fill="none" xmlns="http://www.w3.org/2000/svg">
<circle cx="16" cy="16" r="16" fill="#D9D9D9"/>
<path d="M9 22H22" stroke="black" stroke-linecap="round" stroke-linejoin="round"/>
<path d="M17 11L20 14" stroke="black" stroke-linecap="round" stroke-linejoin="round"/>
<path d="M13.5 20.7409L9 22.0009L10.26 17.5009L18.5 9.30087C18.5931 9.20563 18.7044 9.12995 18.8271 9.07828C18.9499 9.02661 19.0818 9 19.215 9C19.3482 9 19.4801 9.02661 19.6029 9.07828C19.7256 9.12995 19.8369 9.20563 19.93 9.30087L21.7 11.0809C21.7937 11.1738 21.8681 11.2844 21.9189 11.4063C21.9697 11.5282 21.9958 11.6589 21.9958 11.7909C21.9958 11.9229 21.9697 12.0536 21.9189 12.1755C21.8681 12.2973 21.7937 12.4079 21.7 12.5009L13.5 20.7409Z" stroke="black" stroke-linecap="round" stroke-linejoin="round"/>
</svg>
