<svg width="14" height="16" viewBox="0 0 14 16" fill="none" xmlns="http://www.w3.org/2000/svg">
<path d="M8.46813 0C8.61136 0 8.74873 0.0526784 8.85002 0.146447C8.9513 0.240215 9.0082 0.367392 9.0082 0.5C9.0082 0.632608 9.0651 0.759785 9.16638 0.853553C9.26767 0.947322 9.40504 1 9.54827 1C9.69151 1 9.82888 1.05268 9.93016 1.14645C10.0314 1.24021 10.0883 1.36739 10.0883 1.5V2C10.0883 2.13261 10.0314 2.25979 9.93016 2.35355C9.82888 2.44732 9.69151 2.5 9.54827 2.5H4.14755C4.00432 2.5 3.86695 2.44732 3.76567 2.35355C3.66438 2.25979 3.60748 2.13261 3.60748 2V1.5C3.60748 1.36739 3.66438 1.24021 3.76567 1.14645C3.86695 1.05268 4.00432 1 4.14755 1C4.29079 1 4.42816 0.947322 4.52944 0.853553C4.63073 0.759785 4.68763 0.632608 4.68763 0.5C4.68763 0.367392 4.74453 0.240215 4.84581 0.146447C4.94709 0.0526784 5.08446 0 5.2277 0L8.46813 0Z" fill="black"/>
<path d="M1.44788 2.5C1.44788 2.36739 1.50478 2.24021 1.60606 2.14645C1.70735 2.05268 1.84472 2 1.98795 2H2.52802C2.67126 2 2.80863 1.94732 2.90991 1.85355C3.01119 1.75979 3.0681 1.63261 3.0681 1.5C3.0681 1.36739 3.01119 1.24021 2.90991 1.14645C2.80863 1.05268 2.67126 1 2.52802 1H1.98795C1.55824 1 1.14614 1.15804 0.842287 1.43934C0.538438 1.72064 0.367737 2.10218 0.367737 2.5V14.5C0.367737 14.8978 0.538438 15.2794 0.842287 15.5607C1.14614 15.842 1.55824 16 1.98795 16H11.7092C12.1389 16 12.5511 15.842 12.8549 15.5607C13.1588 15.2794 13.3295 14.8978 13.3295 14.5V2.5C13.3295 2.10218 13.1588 1.72064 12.8549 1.43934C12.5511 1.15804 12.1389 1 11.7092 1H11.1692C11.0259 1 10.8886 1.05268 10.7873 1.14645C10.686 1.24021 10.6291 1.36739 10.6291 1.5C10.6291 1.63261 10.686 1.75979 10.7873 1.85355C10.8886 1.94732 11.0259 2 11.1692 2H11.7092C11.8525 2 11.9898 2.05268 12.0911 2.14645C12.1924 2.24021 12.2493 2.36739 12.2493 2.5V14.5C12.2493 14.6326 12.1924 14.7598 12.0911 14.8536C11.9898 14.9473 11.8525 15 11.7092 15H1.98795C1.84472 15 1.70735 14.9473 1.60606 14.8536C1.50478 14.7598 1.44788 14.6326 1.44788 14.5V2.5Z" fill="black"/>
<path d="M7.38887 6.5C7.38887 6.36739 7.33197 6.24021 7.23068 6.14645C7.1294 6.05268 6.99203 6 6.8488 6C6.70556 6 6.56819 6.05268 6.46691 6.14645C6.36562 6.24021 6.30872 6.36739 6.30872 6.5V8H4.68851C4.54527 8 4.4079 8.05268 4.30662 8.14645C4.20534 8.24021 4.14844 8.36739 4.14844 8.5C4.14844 8.63261 4.20534 8.75979 4.30662 8.85355C4.4079 8.94732 4.54527 9 4.68851 9H6.30872V10.5C6.30872 10.6326 6.36562 10.7598 6.46691 10.8536C6.56819 10.9473 6.70556 11 6.8488 11C6.99203 11 7.1294 10.9473 7.23068 10.8536C7.33197 10.7598 7.38887 10.6326 7.38887 10.5V9H9.00908C9.15232 9 9.28969 8.94732 9.39097 8.85355C9.49225 8.75979 9.54915 8.63261 9.54915 8.5C9.54915 8.36739 9.49225 8.24021 9.39097 8.14645C9.28969 8.05268 9.15232 8 9.00908 8H7.38887V6.5Z" fill="black"/>
</svg>
