<svg width="29" height="29" viewBox="0 0 29 29" fill="none" xmlns="http://www.w3.org/2000/svg">
<path d="M28.5928 26.5552L23.2165 21.2183C25.3034 18.6143 26.314 15.309 26.0406 11.9822C25.7672 8.65532 24.2304 5.55976 21.7464 3.33199C19.2623 1.10422 16.0198 -0.086419 12.6855 0.0048887C9.3512 0.0961964 6.17858 1.46251 3.81999 3.82289C1.4614 6.18327 0.0961233 9.35831 0.00488499 12.6951C-0.0863534 16.032 1.10338 19.277 3.32946 21.7629C5.55554 24.2488 8.64875 25.7867 11.9731 26.0604C15.2974 26.334 18.6001 25.3226 21.2022 23.2341L26.535 28.571C26.6697 28.707 26.83 28.8148 27.0066 28.8885C27.1832 28.9621 27.3726 29 27.5639 29C27.7552 29 27.9446 28.9621 28.1212 28.8885C28.2978 28.8148 28.4581 28.707 28.5928 28.571C28.854 28.3006 29 27.9392 29 27.5631C29 27.187 28.854 26.8256 28.5928 26.5552ZM13.0725 23.2341C11.0662 23.2341 9.10501 22.6388 7.43685 21.5233C5.76868 20.4078 4.4685 18.8223 3.70073 16.9673C2.93296 15.1124 2.73207 13.0712 3.12348 11.102C3.51489 9.13274 4.48101 7.32388 5.89966 5.90415C7.31832 4.48441 9.12581 3.51756 11.0935 3.12585C13.0613 2.73415 15.1009 2.93518 16.9545 3.70354C18.808 4.4719 20.3923 5.77306 21.5069 7.4425C22.6216 9.11193 23.2165 11.0747 23.2165 13.0825C23.2165 15.7749 22.1478 18.357 20.2454 20.2608C18.343 22.1646 15.7629 23.2341 13.0725 23.2341Z" fill="#A8BBD8"/>
</svg>
