<svg xmlns="http://www.w3.org/2000/svg" viewBox="0 0 24 30" fill="none" x="0px" y="0px"><path d="M12 15C13.6569 15 15 13.6569 15 12C15 10.3431 13.6569 9 12 9C10.3431 9 9 10.3431 9 12C9 13.6569 10.3431 15 12 15Z" fill="black"/><path fill-rule="evenodd" clip-rule="evenodd" d="M1.50325 12.8188C1.22027 12.3094 1.22027 11.6906 1.50325 11.1812C3.5511 7.49469 7.4845 5 12.0006 5C16.5167 5 20.4501 7.49469 22.4979 11.1812C22.7809 11.6906 22.7809 12.3094 22.4979 12.8188C20.4501 16.5053 16.5167 19 12.0006 19C7.4845 19 3.5511 16.5053 1.50325 12.8188ZM17.0006 12C17.0006 14.7614 14.762 17 12.0006 17C9.23915 17 7.00057 14.7614 7.00057 12C7.00057 9.23858 9.23915 7 12.0006 7C14.762 7 17.0006 9.23858 17.0006 12Z" fill="black"/></svg>