<svg xmlns="http://www.w3.org/2000/svg" xmlns:xlink="http://www.w3.org/1999/xlink" xml:space="preserve" version="1.1" style="shape-rendering:geometricPrecision;text-rendering:geometricPrecision;image-rendering:optimizeQuality;" viewBox="0 0 333.33 416.66249999999997" x="0px" y="0px" fill-rule="evenodd" clip-rule="evenodd"><defs><style type="text/css">
   
    .fil0 {fill:black;fill-rule:nonzero}
   
  </style></defs><g><path class="fil0" d="M311.78 92.57c2.25,-4.77 7.94,-6.81 12.71,-4.56 4.77,2.25 6.81,7.94 4.56,12.71 -9.65,20.46 -23.04,38.8 -39.29,54.14l21.44 25.31c3.41,4.03 2.9,10.05 -1.12,13.46 -4.02,3.41 -10.05,2.91 -13.46,-1.12l-21.43 -25.3c-4.05,3.08 -8.23,5.99 -12.54,8.73 -8.04,5.09 -16.5,9.57 -25.33,13.36l11.4 31.09c1.82,4.95 -0.72,10.44 -5.68,12.26 -4.95,1.81 -10.44,-0.73 -12.26,-5.68l-11.4 -31.09c-13.76,4.22 -28.21,6.84 -43.15,7.63l0 33.15c0,5.29 -4.29,9.57 -9.57,9.57 -5.28,0 -9.57,-4.28 -9.57,-9.57l0 -33.15c-14.94,-0.79 -29.4,-3.41 -43.15,-7.63l-11.4 31.09c-1.81,4.95 -7.31,7.5 -12.26,5.68 -4.96,-1.81 -7.5,-7.31 -5.68,-12.26l11.4 -31.09c-8.83,-3.79 -17.3,-8.26 -25.33,-13.36 -4.31,-2.74 -8.49,-5.65 -12.54,-8.73l-21.43 25.3c-3.41,4.03 -9.43,4.53 -13.46,1.12 -4.02,-3.41 -4.53,-9.43 -1.12,-13.46l21.44 -25.31c-16.25,-15.33 -29.64,-33.68 -39.29,-54.14 -2.25,-4.77 -0.21,-10.46 4.56,-12.71 4.77,-2.25 10.46,-0.21 12.71,4.56 13.03,27.63 33.73,50.96 59.36,67.22 9.33,5.92 19.31,10.9 29.82,14.81 0.25,0.07 0.5,0.15 0.74,0.24 0.25,0.09 0.49,0.19 0.72,0.3 17,6.14 35.34,9.48 54.47,9.48 19.13,0 37.47,-3.35 54.47,-9.48 0.23,-0.11 0.47,-0.2 0.72,-0.3 0.25,-0.09 0.5,-0.17 0.74,-0.24 10.51,-3.91 20.49,-8.89 29.82,-14.81 25.63,-16.26 46.33,-39.59 59.36,-67.22z"/></g></svg>