<svg width="34" height="34" viewBox="0 0 34 34" fill="none" xmlns="http://www.w3.org/2000/svg">
<path d="M33 32.9989C31.9129 29.7673 29.7777 26.9484 26.9024 24.9486C24.0267 22.9487 20.5593 21.8711 17 21.8711C13.4406 21.8711 9.97319 22.9487 7.09762 24.9486C4.22208 26.9484 2.08691 29.7673 1 32.9989H33Z" stroke="#A8BBD8" stroke-width="2" stroke-linecap="round" stroke-linejoin="round"/>
<path d="M16.9997 21.8924C23.051 21.8924 27.9566 17.2155 27.9566 11.4462C27.9566 5.67691 23.051 1 16.9997 1C10.9485 1 6.04297 5.67691 6.04297 11.4462C6.04297 17.2155 10.9485 21.8924 16.9997 21.8924Z" stroke="#A8BBD8" stroke-width="2" stroke-linecap="round" stroke-linejoin="round"/>
<path d="M20.5773 15.4883C20.5773 15.4883 19.6682 17.1938 16.9996 17.1938C14.331 17.1938 13.4219 15.4883 13.4219 15.4883" stroke="#A8BBD8" stroke-width="2" stroke-linecap="round" stroke-linejoin="round"/>
<path d="M27.7583 9.45732C27.7337 9.45747 27.7094 9.45754 27.6851 9.45754C24.5002 9.45754 21.6408 8.1291 19.6832 6.02172C17.7256 8.12915 14.8662 9.45762 11.6814 9.45762C9.83196 9.45762 8.09227 9.00963 6.5752 8.22129C8.00054 4.03025 12.129 1 16.9999 1C22.3378 1 26.7841 4.63927 27.7583 9.45732Z" stroke="#A8BBD8" stroke-width="2" stroke-linecap="round" stroke-linejoin="round"/>
</svg>
