<svg width="21" height="20" viewBox="0 0 21 20" fill="none" xmlns="http://www.w3.org/2000/svg">
<rect width="20" height="20" transform="translate(0.5)" fill="white"/>
<path d="M13.5383 10.5966C14.3553 9.95379 14.9516 9.07234 15.2444 8.07486C15.5371 7.07737 15.5116 6.01346 15.1715 5.03113C14.8314 4.0488 14.1935 3.1969 13.3467 2.59395C12.4999 1.991 11.4862 1.66699 10.4467 1.66699C9.40711 1.66699 8.39341 1.991 7.54659 2.59395C6.69977 3.1969 6.06194 4.0488 5.72183 5.03113C5.38172 6.01346 5.35625 7.07737 5.64895 8.07486C5.94166 9.07234 6.53799 9.95379 7.35499 10.5966C5.95505 11.1574 4.73356 12.0877 3.82073 13.2882C2.9079 14.4886 2.33796 15.9143 2.17165 17.4132C2.15961 17.5227 2.16925 17.6334 2.20001 17.7391C2.23076 17.8448 2.28204 17.9434 2.35091 18.0293C2.49 18.2028 2.69231 18.3139 2.91332 18.3382C3.13433 18.3626 3.35595 18.2981 3.52942 18.159C3.70289 18.0199 3.81401 17.8176 3.83832 17.5966C4.02131 15.9676 4.79806 14.4631 6.02017 13.3706C7.24228 12.278 8.82407 11.6741 10.4633 11.6741C12.1026 11.6741 13.6844 12.278 14.9065 13.3706C16.1286 14.4631 16.9053 15.9676 17.0883 17.5966C17.111 17.8013 17.2087 17.9905 17.3626 18.1274C17.5165 18.2644 17.7156 18.3395 17.9217 18.3382H18.0133C18.2318 18.3131 18.4314 18.2027 18.5688 18.0309C18.7061 17.8592 18.7701 17.6402 18.7467 17.4216C18.5796 15.9184 18.0065 14.4891 17.089 13.2867C16.1715 12.0844 14.9441 11.1545 13.5383 10.5966V10.5966ZM10.4467 10.0049C9.78738 10.0049 9.14292 9.80941 8.59475 9.44314C8.04659 9.07687 7.61935 8.55627 7.36705 7.94718C7.11476 7.3381 7.04875 6.66787 7.17737 6.02127C7.30599 5.37467 7.62345 4.78072 8.08963 4.31455C8.55581 3.84837 9.14975 3.53091 9.79635 3.40229C10.443 3.27367 11.1132 3.33968 11.7223 3.59197C12.3314 3.84427 12.8519 4.27151 13.2182 4.81967C13.5845 5.36784 13.78 6.0123 13.78 6.67157C13.78 7.55563 13.4288 8.40347 12.8037 9.0286C12.1786 9.65372 11.3307 10.0049 10.4467 10.0049Z" fill="#1329EE"/>
</svg>
