<svg width="30" height="30" viewBox="0 0 30 30" fill="none" xmlns="http://www.w3.org/2000/svg">
<path d="M10.6954 13.0011C13.6694 13.0011 16.0803 10.5187 16.0803 7.45653C16.0803 4.39437 13.6694 1.91199 10.6954 1.91199C7.72144 1.91199 5.31055 4.39437 5.31055 7.45653C5.31055 10.5187 7.72144 13.0011 10.6954 13.0011Z" stroke="black" stroke-width="2" stroke-linecap="round" stroke-linejoin="round"/>
<path d="M1 28.5262H10.6928H20.3856V27.3239C20.3684 25.6335 19.9354 23.975 19.1271 22.5037C18.3187 21.0322 17.1613 19.7958 15.763 18.9098C14.3647 18.0237 12.7712 17.5171 11.1312 17.4372C10.9849 17.4301 10.8388 17.4263 10.6928 17.426C10.5468 17.4263 10.4006 17.4301 10.2544 17.4372C8.61441 17.5171 7.02083 18.0237 5.62253 18.9098C4.22425 19.7958 3.06687 21.0322 2.25849 22.5037C1.45013 23.975 1.01715 25.6335 1 27.3239V28.5262Z" stroke="black" stroke-width="2" stroke-linecap="round" stroke-linejoin="round"/>
<path d="M19.3086 13.0011C22.2826 13.0011 24.6935 10.5187 24.6935 7.45653C24.6935 4.39437 22.2826 1.91199 19.3086 1.91199" stroke="black" stroke-width="2" stroke-linecap="round" stroke-linejoin="round"/>
<path d="M24.6919 28.5256H28.9998V27.3231C28.9825 25.6327 28.5496 23.9742 27.7412 22.5029C26.9328 21.0314 25.7755 19.795 24.3772 18.909C23.4734 18.3362 22.4877 17.922 21.4609 17.6792" stroke="black" stroke-width="2" stroke-linecap="round" stroke-linejoin="round"/>
</svg>
