<svg width="414" height="736" viewBox="0 0 414 736" fill="none" xmlns="http://www.w3.org/2000/svg">
<g clip-path="url(#clip0_3894_1411)">
<rect width="414" height="736" fill="#303D51"/>
<path d="M63 184C111.601 184 151 144.601 151 95.9999C151 47.3989 111.601 8 63 8C14.3993 8 -25 47.3989 -25 95.9999C-25 144.601 14.3993 184 63 184Z" fill="#A8BBD8"/>
<path d="M130 85C130 68.5566 122.941 52.7867 110.376 41.1594C97.8112 29.5321 80.7695 23 63 23" stroke="#EEEEEE" stroke-width="3" stroke-linecap="round" stroke-linejoin="round"/>
<path d="M183 608C244.855 608 295 557.855 295 496C295 434.144 244.855 384 183 384C121.145 384 71 434.144 71 496C71 557.855 121.145 608 183 608Z" fill="#A8BBD8"/>
<path d="M268.272 481.999C268.272 461.071 259.288 441 243.297 426.202C227.305 411.403 205.615 403.09 183 403.09" stroke="#EEEEEE" stroke-width="3" stroke-linecap="round" stroke-linejoin="round"/>
<path d="M327 112C388.855 112 439 61.8553 439 -0.00012207C439 -61.856 388.855 -112 327 -112C265.145 -112 215 -61.856 215 -0.00012207C215 61.8553 265.145 112 327 112Z" fill="#A8BBD8"/>
<path d="M39 848C100.855 848 151 797.855 151 736C151 674.144 100.855 624 39 624C-22.8555 624 -73 674.144 -73 736C-73 797.855 -22.8555 848 39 848Z" fill="#A8BBD8"/>
<path d="M124.272 721.999C124.272 701.071 115.288 681 99.2966 666.202C83.3049 651.403 61.6155 643.09 38.9997 643.09" stroke="#EEEEEE" stroke-width="3" stroke-linecap="round" stroke-linejoin="round"/>
<path d="M135 336C170.346 336 199 307.346 199 272C199 236.654 170.346 208 135 208C99.654 208 71 236.654 71 272C71 307.346 99.654 336 135 336Z" fill="#A8BBD8"/>
<path d="M183.728 263.999C183.728 252.04 178.594 240.571 169.456 232.115C160.317 223.659 147.924 218.908 135 218.908" stroke="#EEEEEE" stroke-width="3" stroke-linecap="round" stroke-linejoin="round"/>
<path d="M39 390C47.8365 390 55 382.836 55 374C55 365.163 47.8365 358 39 358C30.1635 358 23 365.163 23 374C23 382.836 30.1635 390 39 390Z" fill="#A8BBD8"/>
<path d="M51.1816 372C51.1816 369.01 49.8982 366.143 47.6137 364.029C45.3291 361.915 42.2306 360.727 38.9998 360.727" stroke="#EEEEEE" stroke-width="2" stroke-linecap="round" stroke-linejoin="round"/>
<path d="M327 722C362.346 722 391 693.346 391 658C391 622.654 362.346 594 327 594C291.654 594 263 622.654 263 658C263 693.346 291.654 722 327 722Z" fill="#A8BBD8"/>
<path d="M375.728 649.999C375.728 638.04 370.594 626.571 361.456 618.115C352.317 609.659 339.924 604.908 327 604.908" stroke="#EEEEEE" stroke-width="3" stroke-linecap="round" stroke-linejoin="round"/>
<path d="M303 245C325.091 245 343 227.091 343 205C343 182.909 325.091 165 303 165C280.909 165 263 182.909 263 205C263 227.091 280.909 245 303 245Z" fill="#A8BBD8"/>
<path d="M333.455 200C333.455 192.526 330.246 185.357 324.535 180.072C318.824 174.787 311.078 171.818 303.001 171.818" stroke="#EEEEEE" stroke-width="3" stroke-linecap="round" stroke-linejoin="round"/>
<path d="M399 454C447.601 454 487 414.601 487 366C487 317.399 447.601 278 399 278C350.399 278 311 317.399 311 366C311 414.601 350.399 454 399 454Z" fill="#A8BBD8"/>
<path d="M466 355C466 338.557 458.941 322.787 446.376 311.159C433.811 299.532 416.77 293 399 293" stroke="#EEEEEE" stroke-width="3" stroke-linecap="round" stroke-linejoin="round"/>
</g>
<defs>
<clipPath id="clip0_3894_1411">
<rect width="414" height="736" fill="white"/>
</clipPath>
</defs>
</svg>
